<svg width="200" height="60" viewBox="0 0 200 60" fill="none" xmlns="http://www.w3.org/2000/svg">
  <!-- Modern, clean logo design for BreurWeb -->
  <!-- Icon: Stylized "B" with web element -->
  <g id="icon">
    <!-- Outer shape - stylized B -->
    <path d="M10 10 L10 50 L28 50 C34 50 38 46 38 40 C38 36 36 33 33 32 C35 31 37 28 37 24 C37 18 33 10 28 10 Z M18 18 L26 18 C28 18 29 20 29 22 C29 24 28 26 26 26 L18 26 Z M18 32 L28 32 C30 32 31 34 31 38 C31 40 30 42 28 42 L18 42 Z" fill="#306b34"/>
    <!-- Web connection dots -->
    <circle cx="42" cy="20" r="2.5" fill="#0b2545"/>
    <circle cx="48" cy="30" r="2.5" fill="#0b2545"/>
    <circle cx="42" cy="40" r="2.5" fill="#0b2545"/>
    <!-- Connection lines -->
    <line x1="38" y1="24" x2="42" y2="20" stroke="#0b2545" stroke-width="1.5" stroke-linecap="round"/>
    <line x1="38" y1="30" x2="48" y2="30" stroke="#0b2545" stroke-width="1.5" stroke-linecap="round"/>
    <line x1="38" y1="38" x2="42" y2="40" stroke="#0b2545" stroke-width="1.5" stroke-linecap="round"/>
  </g>
  
  <!-- Text: BreurWeb -->
  <text x="60" y="40" font-family="Arial, sans-serif" font-size="24" font-weight="700" fill="#0b2545">
    <tspan>Breur</tspan><tspan fill="#306b34">Web</tspan>
  </text>
</svg>