<svg xmlns="http://www.w3.org/2000/svg" viewBox="0 0 128 128" role="img" aria-label="WordPress logo">
  <title>WordPress</title>
  <circle cx="64" cy="64" r="58" fill="#21759B"/>
  <g fill="#fff">
    <path d="M64 18c-25.4 0-46 20.6-46 46 0 18.3 10.7 34.1 26.2 41.5L29.5 54.7C28.5 51.9 28 49 28 46.3 28 38.4 31.7 32 37.3 32c3 0 5.4 2 6.2 6 1 5.1 2.6 11.3 4.1 16.7 1.6 5.6 3 10.3 3 10.3l8.8-26.4c-1.6-3.2-2.1-6.6-2.1-9.2 0-5.4 3.1-9.4 7.1-9.4 3.3 0 5 2.6 5 5.7 0 3.5-2.2 8.7-3.3 12.1l-5.2 16.2 9.5 28.5 6.7-22.5c1.2-4 1.8-8.3 1.8-12.2 0-4-1-7.6-3-10.2-1.8-2.4-2.6-3.6-2.6-5.6 0-3.2 2.4-6.2 6-6.2 5.7 0 10 7.4 10 17.4 0 7.1-2.7 15.4-6.2 25.8l-8.3 25.1C96.6 95.7 110 81 110 64c0-25.4-20.6-46-46-46z"/>
  </g>
</svg>